<svg width="50" height="64" fill="none" xmlns="http://www.w3.org/2000/svg"><path d="M47.992 62.5h.5V13.83H36.109V1.5H1.51v61h46.483zM.5 63.5V.5h36.329L49.5 13.128V63.5H.5z" fill="#333" stroke="#fff"/><path d="M6.924 52.5V58h35.148v-5.5" stroke="#333" stroke-width="2"/><path d="M28.046 9.788H9.576v2h18.47v-2zm13.097 14.73H6.581v2h34.562v-2zm0 5.104H6.581v2h34.562v-2zm0-10.209H6.581v2h34.562v-2zM24.187 53.707a1 1 0 001.415 0l6.364-6.364a1 1 0 00-1.415-1.414l-5.656 5.657-5.657-5.657a1 1 0 00-1.415 1.414l6.364 6.364zM23.894 39v14h2V39h-2z" fill="#333"/></svg>