<svg width="35" height="35" fill="none" xmlns="http://www.w3.org/2000/svg"><path d="M34.895 10.285c-.085-1.863-.381-3.135-.814-4.248a8.577 8.577 0 00-2.018-3.1 8.58 8.58 0 00-3.1-2.019C27.85.486 26.578.19 24.715.106 22.85.02 22.253 0 17.5 0s-5.349.02-7.215.105C8.422.19 7.15.486 6.037.92a8.577 8.577 0 00-3.1 2.018 8.578 8.578 0 00-2.019 3.1C.486 7.15.19 8.422.106 10.285.02 12.15 0 12.747 0 17.5s.02 5.35.106 7.215c.085 1.863.38 3.135.813 4.248a8.575 8.575 0 002.019 3.1 8.575 8.575 0 003.1 2.018c1.112.433 2.384.729 4.247.814 1.867.085 2.463.105 7.215.105 4.753 0 5.35-.02 7.215-.105 1.863-.085 3.135-.381 4.248-.814a8.947 8.947 0 005.118-5.118c.433-1.113.729-2.385.814-4.248.085-1.866.105-2.462.105-7.215s-.02-5.349-.105-7.215zm-3.15 14.287c-.078 1.706-.363 2.633-.603 3.25a5.795 5.795 0 01-3.321 3.32c-.617.24-1.543.526-3.25.603-1.844.085-2.398.102-7.071.102s-5.227-.017-7.072-.102c-1.706-.078-2.632-.363-3.25-.602a5.423 5.423 0 01-2.011-1.31 5.422 5.422 0 01-1.31-2.012c-.239-.616-.524-1.543-.602-3.25-.084-1.844-.102-2.398-.102-7.07 0-4.674.018-5.227.102-7.072.078-1.707.363-2.633.603-3.25.28-.76.728-1.448 1.309-2.012a5.418 5.418 0 012.012-1.31c.617-.239 1.543-.524 3.25-.602 1.845-.084 2.398-.102 7.071-.102 4.672 0 5.226.018 7.072.102 1.706.078 2.632.363 3.249.603.76.28 1.447.728 2.012 1.309a5.419 5.419 0 011.309 2.012c.24.617.525 1.543.603 3.25.084 1.845.102 2.398.102 7.071s-.018 5.227-.102 7.072z" fill="#051823"/><path d="M17 8a9 9 0 100 18 9 9 0 000-18zm0 14.842a5.842 5.842 0 110-11.684 5.842 5.842 0 010 11.684zM29 8a2 2 0 11-4 0 2 2 0 014 0z" fill="#051823"/></svg>