<svg width="107" height="15" fill="none" xmlns="http://www.w3.org/2000/svg"><path d="M10.965 14H9.934l-1.278-3.41a7.739 7.739 0 00-.422-.926 3.14 3.14 0 00-.527-.75 2.272 2.272 0 00-.703-.516 2.075 2.075 0 00-.914-.187H1.602V14H.664V1.168h5.777c.54 0 1.059.05 1.559.152.508.094.957.266 1.348.516.398.25.714.598.949 1.043.234.437.351 1 .351 1.687 0 .43-.054.832-.164 1.207a2.924 2.924 0 01-1.3 1.746 3.593 3.593 0 01-1.16.446c.242.187.44.367.597.539.156.172.29.355.399.55a3.8 3.8 0 01.304.645c.094.235.2.504.317.809L10.965 14zM1.602 7.273h4.453c.633 0 1.175-.046 1.629-.14.453-.094.824-.246 1.113-.457.297-.219.515-.5.656-.844.14-.344.211-.766.211-1.266 0-.882-.281-1.511-.844-1.886-.554-.383-1.386-.575-2.496-.575H1.602v5.168zM19.25.933a6.18 6.18 0 012.426.47 5.412 5.412 0 011.91 1.335 6.07 6.07 0 011.254 2.086c.305.813.457 1.719.457 2.719 0 .992-.149 1.898-.445 2.719a6.31 6.31 0 01-1.254 2.12 5.605 5.605 0 01-1.91 1.372c-.735.32-1.547.48-2.438.48-.89 0-1.707-.16-2.45-.48a5.727 5.727 0 01-1.921-1.371c-.531-.586-.945-1.29-1.242-2.11-.297-.82-.446-1.73-.446-2.73 0-1.008.149-1.918.446-2.73.304-.813.726-1.504 1.265-2.075a5.557 5.557 0 011.91-1.336A6.218 6.218 0 0119.25.934zm-.012 12.364a5.35 5.35 0 002.028-.375 4.506 4.506 0 001.617-1.125c.453-.492.805-1.094 1.055-1.805.25-.719.375-1.535.375-2.449 0-.922-.13-1.734-.387-2.438-.25-.703-.602-1.293-1.055-1.77a4.24 4.24 0 00-1.594-1.089 5.23 5.23 0 00-2.004-.375 5.47 5.47 0 00-2.05.375 4.47 4.47 0 00-1.606 1.102c-.453.476-.808 1.066-1.066 1.77-.25.702-.375 1.51-.375 2.425 0 .914.125 1.73.375 2.45.25.71.597 1.312 1.043 1.804a4.53 4.53 0 001.605 1.125 5.44 5.44 0 002.04.375z" fill="#2E6DA4"/><path d="M39.945 14h-.937V2.703L34.39 14h-.985L28.801 2.703V14h-.938V1.168h1.36l4.675 11.66 4.711-11.66h1.336V14zm12.528 0h-9.27V1.168h8.953v.937h-8.015v4.747h7.511v.937h-7.511v5.274h8.332V14zm14.824 0h-.938V2.703L61.742 14h-.984L56.152 2.703V14h-.937V1.168h1.36l4.675 11.66 4.71-11.66h1.337V14zm12.562-3.598c0 1.164-.394 2.055-1.183 2.672-.782.617-1.934.926-3.457.926h-4.664V1.168h4.64c1.29 0 2.274.246 2.953.738.688.485 1.032 1.262 1.032 2.332 0 .297-.032.606-.094.926a2.598 2.598 0 01-.96 1.617c-.274.211-.626.364-1.056.457.602.055 1.082.188 1.442.399.367.203.648.453.844.75.203.297.335.625.398.984.07.352.105.695.105 1.031zm-8.367 2.66h3.715c2.422 0 3.633-.886 3.633-2.66 0-.46-.063-.859-.188-1.195a1.7 1.7 0 00-.644-.82c-.297-.219-.695-.38-1.195-.48-.493-.11-1.114-.165-1.864-.165h-3.457v5.32zm0-6.257h3.445c1.141 0 1.981-.184 2.52-.551.54-.367.809-.984.809-1.852 0-.78-.25-1.359-.75-1.734-.5-.383-1.301-.574-2.403-.574l-3.62.011v4.7zM92.996 14h-1.031l-1.278-3.41a7.73 7.73 0 00-.421-.926 3.139 3.139 0 00-.528-.75 2.272 2.272 0 00-.703-.516 2.075 2.075 0 00-.914-.187h-4.488V14h-.938V1.168h5.778c.539 0 1.058.05 1.558.152.508.094.957.266 1.348.516.398.25.715.598.95 1.043.234.437.35 1 .35 1.687 0 .43-.054.832-.163 1.207a2.925 2.925 0 01-1.3 1.746 3.592 3.592 0 01-1.161.446c.242.187.441.367.597.539.157.172.29.355.399.55.117.196.218.41.305.645.093.235.199.504.316.809L92.996 14zm-9.363-6.727h4.453c.633 0 1.176-.046 1.629-.14.453-.094.824-.246 1.113-.457.297-.219.516-.5.656-.844.141-.344.211-.766.211-1.266 0-.882-.28-1.511-.843-1.886-.555-.383-1.387-.575-2.496-.575h-4.723v5.168zM106.004 14h-1.125l-1.57-4.125h-6.317c-.226.648-.473 1.336-.738 2.063L95.492 14h-.996c.422-1.11.836-2.195 1.242-3.258.414-1.062.825-2.117 1.23-3.164.407-1.055.813-2.113 1.22-3.176a581.33 581.33 0 001.253-3.246h1.325L106.004 14zm-2.965-4.863L100.062 2l-2.824 7.137h5.801z" fill="#2F2F2F"/></svg>