<svg xmlns="http://www.w3.org/2000/svg" viewBox="0 0 2857 2855"><path d="M149 0H0v29.3c28.8-5.5 57.9-11 87.4-16.4 21-3.8 41.5-8.1 61.6-12.9zM0 2855h31.2C25.7 2779.9 15 2711.2 0 2648v207zM472.4 0H362C279.5 43.2 187.2 76.9 83 98.5c-28 5.8-55.7 11.7-83 17.6V202c27-6.6 54.4-13.1 82.1-19.5C237.9 146.1 365.5 82.5 472.4 0zM0 2321.3v37.4c106.9 117.9 186.6 273.8 221 496.3h63c-45-253.8-148.8-416.3-284-533.7zM595 0h-50.5C427.6 120.2 279.7 214 84.6 264.5 56 271.9 27.8 279.3 0 286.8v84.1c29.7-8.8 59.8-17.6 90.4-26.3C317.3 279.9 476.1 155.8 595 0zm94.5 0H676c-98.9 248.1-252.6 464-549.2 572.4C83.5 588.2 41.2 604.1 0 620v82.6c46.9-19.6 95.2-39.2 145.1-58.8C434.4 530 577.7 311.7 666.9 64c-77.8 268.2-208.6 511.7-510.5 639-54 22.7-106.1 45.4-156.4 68v82.7c57.5-28 117.6-56.1 180.3-84.3C519.8 616.5 626.1 313.1 689.5 0zM0 2250.5v10.3c215.2 100.5 395.6 253.4 473.8 594.2h63.6C448 2483.7 240.4 2343.2 0 2250.5zM2247.2 23.4c54-2 112.5-10.6 174.1-23.4H2123c38.9 16.5 80 25 124.2 23.4zM678.3 186.7c9.5-60.6 17.2-121.7 24.7-182 .2-1.6.3-3.1.5-4.7h-.3c-6 38.6-12.4 77.4-19.6 115.9 3-39.2 6.1-78 10-115.9h-.9c-5 47.7-9.5 96.2-14.6 144.9C622.4 428.2 520.4 697.3 216.6 843 140.3 879.6 68 915.9 0 951.9v84.7c76-43.6 158-87.8 245.7-132.5 268-136.6 365.9-371.6 416-623.6-37.8 266.5-118 522.9-394.1 672.2C170.8 1005.1 81.4 1056.5 0 1107v87.8c89.4-60.7 190.2-122.9 301.5-186.6 318.2-182 353.2-510.1 376.8-821.5zM458.8 1200.5C886.3 897.3 572.9 299 773.5 0h-45.1c-11.5 33.9-19.6 70-25.3 107.8 3.6-37.2 8.6-73.3 15.7-107.8h-10.4c-47.7 359.3 35 831.1-360.8 1070.6C215.1 1150.7 98.7 1228.1 0 1302.8v96.2c103.7-88.5 233.4-181.4 385.9-278.8C641.4 957 678.6 694.3 689 434.5c-1 267-12.8 547.7-272.5 722.6-172 115.8-312.6 224.6-416.5 326.5V1600c97.6-121.2 254.1-254.4 458.8-399.5zM1972 230c187.9-25.3 431.5-153.7 662.5-230h-41.7c-198.9 71.9-397.6 158.5-556.8 176-124.4 13.7-227.4-67.5-326.6-176h-116.2c117.6 133.4 234.6 249.4 378.8 230zM0 2165.9v25.6c383 123 813.8-32.9 982.4 663.5h61.7C863 2084.6 395.8 2335 0 2165.9zM2788.2 145.2c-264.4-179.9-696.6 193.2-988.4 254.3-138.4 29-257.7-94.6-382-218.2-69.9-69.5-141.5-139-218.9-181.4H904.7c-416.2 220.7 65 909.5-392 1250.5-280.2 209.2-461.9 391.2-512.7 545V1957c23.5 59.6 75.9 113.4 160.1 161.3 395.2 224.6 863.6-193.5 1062.5 736.7h58.5c-5.6-21.4-11.1-43.5-16.5-66.2-207.3-881.8-639.9-474.5-1017.8-677.4-326.3-175.1-160.5-453.4 311.7-823.9 437-342.8-81-1013.5 384.8-1206.2 170.7-70.6 309.3 55.1 442 180.8 119.6 113.3 234.5 226.5 363.9 196.1 272.9-64.1 670.7-424.7 923.4-261.6 293.1 189.1 17.8 485.9 142.8 907.2 10.8 36.5 24.9 71.4 41.6 105V204.1c-18.5-20.5-41.2-40.1-68.8-58.9zM2251.4 2855h124.1c96.9-74.6 231.5-120.7 481.5-163.6v-114.3l-11.4 2.1c-366.9 67.8-488.2 132.6-594.2 275.8zm-255.5-143.9c-30.4 60.5-64.2 108.8-100.4 143.8h106c4.6-7.9 9.1-15.9 13.5-24.3 183.8-344.7 153.6-423 613.3-543 79.3-20.7 157.4-44.3 228.7-72.6v-138.8c-87.2 50.3-196.3 88.7-308.1 120.8-420.9 120.9-391.3 192.4-553 514.1zM2517 1097.6c-125.8-333 79.1-588.9-168.8-724.5-32.9-18-67.9-25.8-104.3-25.8-199.9 0-442.9 234-626.2 291.4-102.5 32.1-201.7-52.2-304.7-136.4-114.9-93.9-234.4-187.9-368.5-120.6-364.9 183.1 93 694.4-239.8 997.1-359.6 327.1-477.1 561.6-203.2 683.9 101.5 45.3 203.8 39.9 303.3 34.4 211.4-11.6 409.6-23.2 558.8 452.9 39.7 126.7 83.7 227.7 130.1 305h111.1c-76-70-150.3-196.6-215.4-388-148.2-435.7-330.8-420.3-525.5-404.9-91.4 7.2-185.4 14.5-279.9-25-255.1-106.6-152.1-325.3 172-634.8 299.9-286.4-133.5-747.3 198.7-924.2 122.1-65 234.5 19.1 342.5 103.1 81.1 63.1 159.8 126.2 238.3 126.2 15.1 0 30.2-2.3 45.4-7.5 198.2-67.3 467.7-364 667.3-261.1 231.5 119.4 48.4 359.8 171.8 663.8 79.6 196.2 285.3 317 437.2 428v-49.5c-136-101.8-278.3-219.9-340.2-383.5zm-380.6 42.2c-108.2-219.4 14.9-408-163.7-484.2-18.6-7.9-37.6-11.5-57-11.5-140.9 0-298.6 188.3-425 241.7-67.7 28.7-141-22-216.8-72.6-85-56.8-173.3-113.5-260.8-58.5-237.4 149.4 109.8 468.7-97.6 697.9-224.2 247.6-288.9 415.8-93.5 481.2 72 24.1 141.3 13.8 208.6 3.5 144.2-22 279.4-44.1 413.5 272.5 167.3 394.9 361.4 396.6 464.2 148.7 102.8-248 76.9-299.5 383.3-412.1 212.7-78.2 409.2-187.4 330.7-383.5-54-135.3-377.7-203.7-485.9-423.1zm63.7 730.4c-269 106.4-245 151.5-330.7 373.4-85.7 221.9-257.8 224.5-414.5-121.8-125.7-277.7-245-255.1-372.4-232.5-59.3 10.5-120.4 21.1-184.6 1.3-174.6-53.8-120.8-204.2 72.5-428.3 178.9-207.5-135.6-482.8 71.5-620.3 76.3-50.7 155.8-2.2 232.4 46.3 53.6 33.9 105.7 67.8 154.4 67.8 13.3 0 26.3-2.5 39.1-8.3 126-56.9 284.2-269.2 422-214.3 159.8 63.7 54.8 233.5 155.4 425.5 100.6 192 388.8 245.7 439.7 364.3 73.6 172.1-98 273-284.8 346.9zm-417.4-634c-70.2-113.2-13.5-222-114.3-253.9-7.8-2.5-15.6-3.6-23.5-3.6-79.1 0-157.7 117-225.7 153.8-35.1 19.1-77.3-4.3-120.9-27.7-49.2-26.4-100.2-52.7-144.9-18.2-120.8 93.5 84.3 248.3-16.1 383.5-108.5 146.1-134.7 240.6-25.3 265.8 40.1 9.2 76.9.2 112.7-8.9 77.2-19.6 149.5-39.2 239.1 125.8 111.5 205.3 216.9 196 259.5 56.1 42.6-139.8 25.9-166.4 186.1-243.6 111.2-53.6 211.9-123.1 159-225.3-36.3-70.5-215.4-90.6-285.7-203.8zm25.2 369c-125.2 64.1-111.4 84.8-142.5 196.2-31 111.4-114.2 120.8-206.3-39.4-74.1-128.8-130.9-111.8-191.7-94.8-28.1 7.9-57 15.7-88.8 9.2-87-17.8-68.1-93.1 14.9-210.7 76.8-108.8-88.4-227.3 5.4-303.6 34.6-28.2 75.5-8.3 115 11.7 25.4 12.8 50.2 25.6 72.4 25.6 8.3 0 16.3-1.8 23.7-6.1 58.3-33.5 124.9-143.7 194.1-123.6 80.4 23.3 37.5 110.4 95.3 198.6 57.7 88.2 199.7 100.6 229.9 155.6 43.8 79.8-34.5 136.7-121.4 181.3zm-339.8-229.9c-15.3-20.1-6.6-41.6-26.2-45.8-1-.2-2-.3-3.1-.3-15.5 0-28.6 24.7-41.2 33.2-6.3 4.2-14.6.6-23.2-3-9.8-4.1-19.9-8.2-27.7-.8-21.1 19.8 20.4 45.3 4 72.6-17.8 29.5-21 47.8.1 50.6 7.7 1 14.4-1.4 21-3.7 14.2-5.1 27.5-10.3 47.5 19.3 24.8 36.7 44.5 33 50 5.8s1.8-31.9 30.6-49.4c20-12.1 37.7-27.1 25.9-45.4-8.2-12.5-42.3-13-57.7-33.1zm.8 66c-15.4 9.4-13.5 11.9-16.4 26.5-2.9 14.6-13.5 16.5-26.8-3.1-10.7-15.9-17.9-13.1-25.5-10.4-3.5 1.3-7.1 2.5-11.2 2-11.3-1.5-9.6-11.3-.1-27.1 8.8-14.7-13.5-28.3-2.1-39 4.2-3.9 9.6-1.8 14.9.4 3.1 1.3 6.2 2.6 8.9 2.6 1.3 0 2.5-.3 3.6-1 7.2-4.8 14.7-19.6 23.7-17.6 10.5 2.2 5.8 13.8 14.1 24.6 8.2 10.8 26.5 11 30.9 17.8 6.2 9.8-3.3 17.8-14 24.3zM0 2506.1c42.9 97.6 72.8 212.1 85.9 348.9h63.4C126.8 2671.2 73.9 2530.1 0 2417.1v89zM642.8 0h-27.3C500.3 184.5 338.9 335.3 89.7 412.9c-30.4 9.5-60.2 18.9-89.7 28.5v82.7c33.3-11.8 67.2-23.5 101.8-35.2C374.4 396.7 534.4 215.5 642.8 0zM0 2270.9v20.8c159.8 114.7 285.4 280.1 339.2 563.4h63.5C337.9 2542.4 186.8 2379.7 0 2270.9zm0-44.7v10.1c262.8 85.7 495.9 211.9 593.9 618.7h64c-103.2-419.3-343.7-534.1-612-612.1 293.2 71.3 566.5 156.2 683.3 612.1h63.9C659 2330.8 331.1 2300.7 0 2226.2zm0-25.4v10.6c349.3 78.3 707 64.6 849.3 643.6h63.1C758.8 2218.6 366.8 2292.6 0 2200.8zM2093.5 113.7c123.6-10.6 270.9-60.2 424.2-113.7h-52.3c-108.6 32.3-211.3 57.3-301.5 62.8-72.8 4.4-137.6-20.2-197.7-62.8H1831c79.1 74.1 163.7 122.2 262.5 113.7zM2857 2855v-60.7c-112.6 17.9-201.8 37.4-274.9 60.7H2857zM2664.3 0c-255.4 59.7-546.6 241.1-762.8 275.5-156.6 24.9-283.3-120.2-415.9-265.3-3.1-3.4-6.2-6.8-9.4-10.3h-121.8c30.6 29 60.6 59.9 90.3 90.9C1573.3 225 1696.6 359.2 1844.1 332 2140 277.6 2578-73.3 2857 63.8V0h-192.7zM63.1 2110.7c-23.4-14.1-44.4-28.5-63.1-43.4v55.5C405.9 2353 905.8 1994.7 1097.3 2855h59.5c-196.2-908.5-690-501.7-1093.7-744.3zM2550.9 242c-240.3-147-604.6 199.7-858.7 265.9-120.4 31.4-230.4-71.9-344.9-175.2-100.3-90.4-203.9-180.9-320.9-180.9-31.5 0-63.9 6.5-97.4 21.4-431.7 191 68.5 807.3-332.9 1138.2C162.4 1669.1 13.5 1933.3 323 2090c115 58.2 233.9 57.5 349.3 56.7 244.4-1.6 473.7-3.1 619.1 554.5 14.4 55.3 29.7 106.5 45.8 153.7h70.1c-29.5-66.6-57.3-144.2-82.9-233.4-148.3-516.8-362.1-509.8-590.1-502.8-26.3.8-52.8 1.6-79.5 1.6-82.1 0-165.2-7.7-247-46.6-292-139-159.2-388.7 237-731.9 366.6-317.6-113.5-880.7 284.6-1068.5 146.1-68.9 272.5 35.2 393.8 139.4 108.9 93.6 213.8 187.2 325.2 155.3 235.4-67.4 567.1-398.8 794.4-267.2 263.7 152.6 36.1 423.1 163 785.3 47.1 134.5 144.5 242.2 251.3 335.8v-78c-65.9-75.7-120.7-159.7-151.8-255.7-126.7-391.6 124.3-675.7-154.4-846.2zm-484.3 2613h79.8c125.4-220.1 195.1-296.5 620.5-385.9 30.2-6.3 60.3-13.1 90-20.2v-120.4c-52.6 16.1-107.3 30.5-162.5 43.4-456.8 107.6-469.4 188.2-627.8 483.1zm247.5-1753.1c-119.6-275.4 42.5-499.4-171.9-603.5-25.3-12.3-51.7-17.7-78.8-17.7-170.7 0-370.7 214.4-525.9 271.3-84.9 31.2-171.8-35.5-261.9-102.2-100.8-74.6-205.5-149.1-315.8-86.9-299.9 169.1 106.8 581.3-161.3 849.9-289.6 290.3-379.1 492.7-143.3 584.5 87.1 34 172.9 25.3 256.3 16.7 177.9-18.4 344.7-36.9 490.1 358.7 181.6 494.2 419.6 507.8 560.4 209.9 140.8-297.9 112.1-362.7 494.6-482.6 166.3-52.2 325.5-119.6 400.5-223v-277.8c-108.2-141.7-435.7-250.1-543-497.3zm56.6 914.6c-344.2 117.2-316.8 175.3-438 448.6-121.1 273.3-337.3 266.2-512.9-178.1-140.7-355.9-291.7-335.2-452.7-314.6-75.3 9.7-152.8 19.3-232.5-9.5-215.9-78.1-139.2-263.7 117.1-533.3C1089 1180 711 815.2 979.3 655.2c98.8-58.9 195.5 6.6 288.6 72 67.5 47.5 133.2 95 196.3 95 14.6 0 29-2.5 43.3-8.2 161.6-63.8 373.2-320.7 542.9-243.4 196.8 89.7 54.6 296.4 169.2 543.6 114.6 247.2 473.2 332.1 529.8 484.2 82 220.5-139.7 336.8-378.7 418.1zm-424.8-844.8c-91.7-165.2-3.8-315.3-144.4-367.5-12.7-4.7-25.6-6.9-38.6-6.9-110.4 0-227.4 155.7-324.6 202.5-51.1 24.6-109.4-11.6-169.7-47.7-67.8-40.7-138.2-81.3-203.6-35.5-177.5 124.2 102.3 357.5-49.2 542-163.7 199.4-207.3 331.6-54.1 374.7 56.3 15.9 109.2 5.4 160.6-5 110.6-22.4 214.2-44.9 329.6 194.6 143.8 298.4 293.7 292.5 363.7 97.3 70-195.1 48.1-233.9 280.3-332.3 161.2-68.3 308.6-159.8 240.8-308.2-46.8-102.1-299.1-142.8-390.8-308zm53.2 548.1c-195.8 88.6-176.4 121.3-232 289-55.6 167.8-183.2 175.9-312-75.5-103.4-201.9-191.3-180.5-285.2-159-43.5 9.9-88.4 19.9-136.6 7.5-131.5-33.6-97-147.2 38.4-320.5 125.3-160.4-118-353.5 30.7-463 54.9-40.4 115.7-7.1 174.4 26.2 39.4 22.4 77.9 44.7 112.9 44.7 11.2 0 22.1-2.3 32.6-7.6 91.5-46.8 201.3-210.1 305.5-174.3 120.9 41.5 49.1 171.3 130.7 310.2 81.6 138.9 297.5 168.3 339.5 254.6 60.8 125.1-63 206.2-198.9 267.7zm-390.5-426.2c-44-63.9-14.1-128.7-73.6-144.4-3.9-1-7.7-1.5-11.5-1.5-46.9 0-90 72.1-129.1 95.9-19.8 12-45-.3-71-12.6-29.4-14-59.9-27.9-84.9-6.6-67.6 57.8 56 142 1.5 223.4-58.9 88-71.5 143.7-7.2 155.3 23.5 4.2 44.6-2 65.1-8.3 44.4-13.6 85.9-27.2 142.8 66.3 70.6 116.2 131.6 107.8 152.5 25.3 20.8-82.5 10.4-97.5 101.3-146.9 63.1-34.3 119.8-77.6 86.1-135.5-23.3-40-128-46.6-172-110.4zm-19.9 194.2c-57.5 33.1-50.6 42.5-62.6 95.7-12.1 53.2-51 59.5-98.1-13.9-37.9-59.1-64.3-49.7-92.6-40.3-13 4.3-26.4 8.6-41.5 6.3-41.4-6.4-34.2-42.3 2.2-99.6 33.7-53-46.8-105.1-4.4-143.2 15.7-14.1 35.5-5.6 54.5 2.9 11.7 5.2 23.1 10.4 33.2 10.4 4.4 0 8.6-1 12.4-3.4 26.7-17.1 55.5-70.5 88.6-62.6 38.4 9.1 20.2 51.2 49.4 91.4s96.4 42.8 111.9 68.1c22.5 36.7-13.1 65.3-53 88.2z" fill="green"/></svg>