<svg width="272" height="56" fill="none" xmlns="http://www.w3.org/2000/svg"><path d="M16.18.48L0 22.628h14.561L30.458.48H16.18zm240.93 0l-16.182 22.148h14.566L271.387.48H257.11zm-83.777 53.657l2.627-7.697 14.796-.004 2.627 7.701h11.523l-15.103-43.02h-13.14l-14.911 43.02h11.581zm10.022-29.408l4.378 12.823h-8.746l4.368-12.823zm-48.461 29.403V39.623l9.888 14.51h13.507L146.45 36.89c4.696-2.296 7.488-7.145 7.52-11.921.059-9.22-7.366-13.856-12.659-13.856l-18.159.002v43.016h11.742zm0-33.14c4.22-.041 8.076.399 8.076 4.343 0 3.949-3.18 4.91-8.076 4.863v-9.205zM27.399 11.116V22.63l12.841-.002v31.504h12.844V22.63h12.133V11.114l-37.818.002zM91.966 9.78c-16.12 0-24 10.227-24 22.847 0 12.624 8.625 22.853 24 22.853 15.371 0 23.995-10.229 23.995-22.853-.001-12.62-7.879-22.848-23.995-22.848zm-.003 35.419c-6.301 0-11.556-5.628-11.556-12.572 0-6.942 4.95-12.57 11.556-12.57 6.609 0 11.559 5.629 11.559 12.57 0 6.944-5.257 12.572-11.559 12.572z" fill="#004098"/><path d="M91.966 9.78c-16.12 0-24 10.227-24 22.847 0 12.624 8.625 22.853 24 22.853 15.371 0 23.995-10.229 23.995-22.853-.001-12.62-7.879-22.848-23.995-22.848zm-.003 35.419c-6.301 0-11.556-5.628-11.556-12.572 0-6.942 4.95-12.57 11.556-12.57 6.609 0 11.559 5.629 11.559 12.57 0 6.944-5.257 12.572-11.559 12.572zm137.344-34.084l-7.409 11.357-7.42-11.357h-13.764l15.43 22.492v20.528h11.508V33.607l15.422-22.492h-13.767z" fill="#004098"/></svg>