<svg width="59" height="76" fill="none" xmlns="http://www.w3.org/2000/svg"><path fill-rule="evenodd" clip-rule="evenodd" d="M23.19.097c-1.775.14-3.726.386-4.336.548-1.09.288-1.11.347-1.11 3.442v3.15l2.037.436c1.12.24 2.39.437 2.823.437.661 0 .787.284.787 1.773v1.774l-2.663.463c-6.108 1.064-12.22 4.37-16.998 9.195C2.122 22.94.807 24.443.807 24.658c0 .225 1.701.39 4.024.39h4.025l2.126-1.625c4.717-3.606 9.637-5.262 15.635-5.262 7.289 0 12.8 2.288 17.975 7.463 5.089 5.09 7.55 10.947 7.55 17.975 0 7.041-2.466 12.905-7.55 17.952-3.316 3.294-6.245 5.145-10.132 6.404-4.837 1.567-11.133 1.498-16.168-.177-2.726-.908-7.772-4.009-9.389-5.772-.93-1.013-1.172-1.065-4.94-1.065-2.18 0-3.963.146-3.963.324 0 .807 4.685 5.887 7.152 7.756 5.866 4.443 11.964 6.47 19.465 6.47 9.944 0 18.547-4.03 24.812-11.626 4.69-5.686 7.096-12.557 7.096-20.266 0-5.58-.907-9.534-3.292-14.35-4.17-8.423-11.92-14.527-21.398-16.852l-3.79-.93V8.32l2.52-.543 2.521-.543V4.086c0-3.095-.018-3.153-1.109-3.437-2.026-.53-7.518-.81-10.788-.552zm11.709 34.242c-5.989 4.141-6.518 4.42-8.352 4.42-1.667 0-2.182.206-3.465 1.381-1.344 1.233-1.506 1.592-1.506 3.345 0 2.42.956 3.998 2.92 4.818 3.101 1.297 6.473-.655 6.846-3.963.197-1.75.508-2.153 5.606-7.24 2.968-2.963 5.397-5.594 5.397-5.847 0-.253-.237-.657-.526-.897-.401-.333-2.054.618-6.92 3.983z" fill="#333"/></svg>