<svg width="140" height="54" fill="none" xmlns="http://www.w3.org/2000/svg"><g filter="url(#filter0_d)"><path fill-rule="evenodd" clip-rule="evenodd" d="M70.66 9.676c13.706.883 22.562-1.24 33.712 2.093 11.037 3.3 23.028 1.104 28.448 6.197 5.751 5.403-.912 23.444-7.984 28.586-6.94 5.047-14.151-.75-26.926 1.848-10.105 2.055-18.435-1.825-29.751-1.848-11.296-.023-19.753 4.006-29.535 1.727-11.263-2.624-27.03-3.483-31.967-8.338-4.952-4.872 2.54-10.8 4.98-15.972 2.955-6.26-.618-13.075 10.805-17.477C33.816 2.11 55.132 8.676 70.66 9.676z" fill="#E33170"/></g><defs><filter id="filter0_d" x=".426" y=".426" width="139.148" height="53.148" filterUnits="userSpaceOnUse" color-interpolation-filters="sRGB"><feFlood flood-opacity="0" result="BackgroundImageFix"/><feColorMatrix in="SourceAlpha" values="0 0 0 0 0 0 0 0 0 0 0 0 0 0 0 0 0 0 127 0"/><feOffset/><feGaussianBlur stdDeviation="2.287"/><feColorMatrix values="0 0 0 0 0.0941176 0 0 0 0 0.0941176 0 0 0 0 0.0941176 0 0 0 0.56 0"/><feBlend in2="BackgroundImageFix" result="effect1_dropShadow"/><feBlend in="SourceGraphic" in2="effect1_dropShadow" result="shape"/></filter></defs></svg>